<?xml version="1.0" standalone="no"?>
<!DOCTYPE svg PUBLIC "-//W3C//DTD SVG 20010904//EN"
 "http://www.w3.org/TR/2001/REC-SVG-20010904/DTD/svg10.dtd">
<svg version="1.0" xmlns="http://www.w3.org/2000/svg"
 width="300.000000pt" height="300.000000pt" viewBox="0 0 300.000000 300.000000"
 preserveAspectRatio="xMidYMid meet">
<metadata>
Created by potrace 1.10, written by Peter Selinger 2001-2011
</metadata>
<g transform="translate(0.000000,300.000000) scale(0.100000,-0.100000)"
fill="#000000" stroke="none">
<path d="M1390 2877 c-3 -3 -57 -8 -121 -11 -64 -3 -136 -10 -161 -15 -25 -6
-65 -13 -89 -16 -24 -3 -64 -11 -89 -19 -25 -7 -65 -20 -90 -27 -55 -16 -157
-67 -189 -94 -13 -11 -30 -35 -37 -52 -26 -60 13 -115 118 -170 29 -15 58 -28
63 -29 6 -2 47 -14 92 -28 45 -14 99 -27 120 -31 21 -3 63 -10 93 -15 215 -36
595 -36 800 0 30 5 71 12 90 15 65 10 213 56 264 82 252 126 163 266 -229 359
-11 3 -29 7 -40 8 -11 2 -49 9 -85 16 -71 13 -84 14 -335 25 -93 4 -172 5
-175 2z m325 -37 c72 -6 153 -14 180 -19 28 -6 77 -15 109 -21 140 -26 309
-98 340 -145 41 -62 9 -110 -111 -167 -60 -28 -67 -29 -106 -18 -23 6 -62 15
-87 19 -25 4 -51 10 -58 14 -6 5 -12 4 -12 -2 0 -5 15 -12 33 -16 58 -12 97
-26 92 -35 -3 -5 -36 -15 -73 -24 -274 -62 -742 -64 -1009 -5 -91 20 -120 34
-89 44 48 15 52 18 28 23 -13 2 -28 -1 -35 -6 -7 -5 -30 -13 -52 -16 -34 -6
-52 -2 -104 24 -71 36 -121 83 -121 116 0 51 70 105 190 147 76 26 107 34 260
64 154 30 400 39 625 23z"/>
<path d="M1200 2529 c-103 -12 -111 -20 -15 -14 248 14 457 17 544 7 141 -17
247 -23 196 -12 -22 4 -65 11 -95 15 -87 11 -547 14 -630 4z"/>
<path d="M374 1467 l2 -1094 27 -45 c118 -202 624 -333 1207 -314 513 18 904
145 995 326 l24 48 0 848 c0 467 0 954 1 1082 1 228 -3 281 -17 211 -14 -72
-136 -164 -302 -229 -365 -142 -1028 -163 -1476 -45 -233 60 -434 183 -448
273 -2 12 -6 24 -9 28 -4 3 -5 -487 -4 -1089z m2221 -75 c-1 -695 -5 -1015
-13 -1034 -12 -29 -75 -91 -125 -121 -105 -66 -319 -142 -389 -139 -10 0 -18
-3 -18 -6 0 -4 -8 -8 -18 -9 -10 -1 -45 -6 -78 -12 -71 -13 -223 -28 -362 -37
-79 -5 -106 -3 -119 7 -14 12 -16 12 -9 0 7 -11 -6 -12 -80 -7 -154 12 -256
24 -339 41 -44 10 -102 21 -130 25 -66 10 -214 60 -291 97 -127 62 -195 124
-209 192 -5 25 -10 1574 -6 1964 1 60 15 74 41 42 62 -74 417 -200 620 -220
36 -3 83 -8 105 -10 22 -2 40 -4 40 -5 0 -4 58 -8 135 -10 47 -2 95 -6 107
-11 12 -4 23 -4 25 1 2 5 71 11 153 14 219 7 365 26 523 67 42 11 82 22 87 23
32 7 93 31 143 57 31 16 63 29 70 29 6 0 12 4 12 9 0 5 9 12 19 16 11 3 36 19
57 36 25 20 40 26 44 18 4 -6 6 -464 5 -1017z"/>
<path d="M1457 1625 c-9 -8 -24 -15 -34 -15 -28 0 -117 -64 -160 -115 -21 -25
-38 -49 -39 -53 0 -4 -8 -25 -18 -47 -12 -26 -20 -81 -25 -160 -5 -66 -9 -111
-9 -101 -3 30 -63 111 -102 137 -19 13 -60 36 -90 52 -72 37 -94 59 -85 86 9
29 49 37 109 22 85 -21 123 -24 131 -11 14 22 13 113 -2 147 -20 49 -61 63
-187 63 -96 0 -108 -2 -162 -30 -95 -50 -136 -114 -136 -214 1 -90 71 -181
190 -244 71 -38 92 -56 92 -81 0 -31 -57 -40 -129 -21 -34 10 -68 23 -74 29
-21 21 -57 13 -67 -15 -13 -33 -13 -130 0 -155 12 -21 84 -62 94 -52 3 3 11 2
18 -3 18 -12 152 -10 217 4 35 8 69 24 97 47 41 34 94 122 94 156 0 29 27 30
33 1 8 -40 61 -107 114 -147 60 -43 142 -76 164 -65 12 7 34 -10 91 -70 42
-43 86 -84 98 -90 24 -13 183 -16 201 -4 24 14 -19 24 -107 24 l-91 0 -64 76
c-63 75 -90 94 -132 94 -44 0 -142 56 -189 109 -128 142 -117 396 25 532 85
83 251 114 371 69 78 -30 139 -87 178 -169 28 -57 33 -78 35 -155 3 -102 -24
-199 -72 -262 -24 -31 -91 -82 -129 -98 -6 -2 7 -21 29 -42 22 -20 70 -65 107
-100 65 -61 93 -73 63 -27 -9 12 -45 53 -82 89 l-66 66 46 40 c83 70 125 165
134 300 9 131 -50 272 -139 334 -83 58 -145 77 -236 73 -37 -2 -72 0 -79 4 -6
4 -18 0 -26 -8z m-391 -36 l44 -11 0 -79 0 -78 -36 21 c-23 13 -59 22 -102 25
-58 4 -71 2 -94 -17 -56 -43 -26 -101 81 -154 151 -77 186 -123 179 -236 -4
-82 -33 -126 -105 -161 -42 -21 -62 -24 -168 -24 -79 0 -131 5 -152 14 l-33
13 0 84 0 83 37 -25 c109 -74 253 -62 253 21 0 34 -34 67 -111 106 -88 44
-134 82 -158 132 -23 47 -27 119 -10 164 19 52 80 103 149 124 39 11 176 10
226 -2z"/>
<path d="M2014 1599 c-17 -19 -18 -42 -19 -292 -2 -300 5 -431 20 -446 7 -7
91 -12 218 -13 201 -3 207 -2 229 19 24 24 27 86 7 134 -13 32 -40 39 -155 39
-45 0 -85 4 -88 8 -2 4 -6 120 -7 257 -2 242 -7 291 -32 307 -7 4 -44 8 -83 8
-59 0 -74 -3 -90 -21z m176 -299 l0 -290 130 0 130 0 0 -67 0 -68 -213 0 -212
0 0 357 0 358 83 0 82 0 0 -290z"/>
<path d="M1491 1443 c-103 -54 -140 -213 -79 -341 54 -113 215 -126 284 -22
66 99 45 292 -37 351 -41 29 -124 35 -168 12z m143 -38 c45 -30 66 -84 66
-170 0 -84 -14 -128 -53 -164 -45 -41 -167 -39 -167 3 0 8 -8 16 -18 18 -40
11 -59 181 -26 246 8 18 20 30 25 26 5 -3 14 8 20 25 7 18 19 31 32 34 43 7
94 0 121 -18z"/>
</g>
</svg>
