<?xml version="1.0" standalone="no"?>
<!DOCTYPE svg PUBLIC "-//W3C//DTD SVG 20010904//EN"
 "http://www.w3.org/TR/2001/REC-SVG-20010904/DTD/svg10.dtd">
<svg version="1.0" xmlns="http://www.w3.org/2000/svg"
 width="300.000000pt" height="300.000000pt" viewBox="0 0 300.000000 300.000000"
 preserveAspectRatio="xMidYMid meet">
<metadata>
Created by potrace 1.10, written by Peter Selinger 2001-2011
</metadata>
<g transform="translate(0.000000,300.000000) scale(0.100000,-0.100000)"
fill="#000000" stroke="none">
<path d="M1864 2907 c-28 -77 -54 -165 -54 -183 0 -34 46 -82 90 -94 80 -22
114 6 159 128 l31 83 -26 9 c-14 6 -27 10 -29 10 -2 0 -15 -36 -30 -80 -31
-94 -56 -118 -99 -99 -39 18 -42 50 -11 134 15 41 24 78 21 83 -9 15 -47 21
-52 9z"/>
<path d="M1460 2903 c-8 -3 -23 -12 -32 -21 -16 -14 -18 -13 -18 2 0 13 -7 17
-27 14 -30 -3 -31 -10 -17 -149 5 -54 6 -55 33 -51 27 4 27 5 23 63 -5 63 7
89 39 89 14 0 19 7 19 30 0 17 -1 30 -2 29 -2 0 -10 -3 -18 -6z"/>
<path d="M1157 2850 c-32 -25 -42 -69 -27 -115 20 -60 88 -81 155 -49 41 19
49 37 25 52 -14 9 -21 8 -30 -3 -16 -19 -74 -19 -89 -1 -9 11 2 16 61 28 68
13 73 16 70 38 -6 63 -109 94 -165 50z m102 -34 c15 -17 8 -22 -46 -31 -47 -7
-52 -2 -26 27 19 21 56 24 72 4z"/>
<path d="M974 2800 c-12 -5 -29 -19 -38 -32 -9 -12 -16 -17 -16 -10 0 9 -7 11
-22 6 -13 -3 -25 -8 -27 -10 -2 -2 15 -47 37 -101 23 -54 46 -110 51 -125 10
-25 13 -27 36 -16 28 13 30 23 10 58 -19 33 -18 42 3 39 58 -5 102 32 102 86
0 83 -66 133 -136 105z m60 -55 c25 -26 29 -55 10 -76 -23 -25 -59 -24 -78 3
-22 31 -20 54 6 72 28 20 43 20 62 1z"/>
<path d="M2097 2689 c-53 -104 -56 -112 -40 -125 10 -7 23 -13 28 -13 6 -1 36
49 68 110 53 104 56 112 40 125 -10 7 -22 13 -28 13 -5 1 -36 -49 -68 -110z"/>
<path d="M1603 2744 c-8 -22 10 -49 32 -49 10 0 22 7 28 16 15 24 1 49 -28 49
-15 0 -28 -7 -32 -16z"/>
<path d="M732 2670 c-18 -11 -40 -36 -48 -55 -12 -30 -12 -40 0 -69 26 -62 85
-83 146 -51 98 51 67 195 -42 195 -13 0 -38 -9 -56 -20z m88 -52 c24 -26 25
-45 3 -70 -22 -25 -59 -23 -77 4 -20 29 -20 47 1 70 22 24 48 23 73 -4z"/>
<path d="M2351 2614 c-12 -15 -21 -33 -21 -40 0 -9 -12 -14 -33 -14 -33 0 -58
-18 -69 -51 -15 -40 54 -119 105 -119 10 0 17 -8 17 -19 0 -25 11 -32 37 -25
14 4 19 12 16 25 -4 13 3 22 21 30 28 13 32 25 16 49 -7 12 -12 12 -22 2 -19
-19 -28 -14 -28 18 0 26 4 30 28 30 74 0 82 89 12 125 -41 21 -55 19 -79 -11z
m79 -39 c16 -19 4 -35 -26 -35 -17 0 -24 6 -24 18 0 34 28 43 50 17z m-90 -77
c0 -13 3 -33 6 -45 8 -30 -12 -30 -43 -1 -37 35 -29 65 20 67 11 1 17 -6 17
-21z"/>
<path d="M529 2611 l-24 -19 50 -54 c28 -29 69 -75 92 -103 l43 -50 20 21 21
20 -87 100 c-48 54 -88 100 -89 102 -1 1 -13 -6 -26 -17z"/>
<path d="M495 2460 c-40 -16 -70 -59 -70 -102 0 -33 6 -45 33 -69 48 -43 93
-40 143 10 46 46 52 81 14 81 -18 0 -25 -5 -25 -18 0 -25 -31 -52 -58 -52 -12
0 -22 3 -22 7 0 4 23 31 51 59 l52 53 -34 20 c-36 22 -52 25 -84 11z m48 -46
c7 -7 -52 -74 -65 -74 -14 0 -9 43 9 62 16 18 44 24 56 12z"/>
<path d="M2590 2335 c-36 -25 -73 -54 -82 -66 -24 -29 -23 -84 3 -125 44 -71
101 -73 205 -7 41 25 74 48 74 50 0 12 -22 43 -31 43 -6 0 -36 -18 -68 -39
-79 -54 -101 -58 -130 -27 -38 40 -23 67 64 122 71 44 75 48 62 67 -8 12 -18
22 -23 23 -5 2 -38 -17 -74 -41z"/>
<path d="M352 2306 c-9 -21 -6 -31 33 -83 24 -32 43 -59 42 -59 -1 -1 -33 5
-72 13 -68 14 -69 14 -86 -9 -10 -12 -16 -25 -13 -27 4 -5 169 -30 197 -31 9
0 22 11 28 24 10 21 5 34 -47 110 -33 47 -62 85 -65 86 -3 0 -11 -11 -17 -24z"/>
<path d="M2781 2066 c-48 -73 -40 -71 -148 -36 -29 10 -53 16 -53 15 0 -1 5
-16 11 -33 11 -32 18 -36 82 -48 20 -3 37 -8 37 -11 0 -3 -13 -22 -30 -43 -33
-42 -34 -47 -20 -86 10 -27 11 -26 56 44 l45 70 74 -23 c41 -12 75 -22 75 -20
0 1 -5 16 -11 33 -8 25 -18 32 -47 37 -62 10 -65 17 -33 61 26 36 27 42 17 73
l-12 34 -43 -67z"/>
<path d="M242 2074 c-55 -38 -65 -119 -19 -162 49 -46 122 -37 157 20 20 33
28 108 11 108 -20 0 -41 -13 -35 -22 11 -17 -6 -58 -31 -74 -14 -9 -28 -14
-31 -12 -2 3 9 36 26 73 24 53 28 70 18 77 -21 13 -72 9 -96 -8z m39 -79 c-17
-49 -34 -54 -39 -11 -4 31 13 56 38 56 17 0 17 -3 1 -45z"/>
<path d="M151 1867 c-48 -17 -71 -54 -91 -146 l-18 -81 37 -6 c20 -3 77 -14
128 -23 l92 -18 10 62 c15 84 14 121 -4 155 -26 50 -98 76 -154 57z m70 -57
c24 0 49 -42 49 -82 0 -61 -8 -69 -55 -58 -22 4 -57 11 -77 14 -36 6 -37 8
-31 39 11 60 54 104 91 91 8 -2 18 -4 23 -4z"/>
<path d="M2795 1708 c-55 -5 -101 -11 -103 -12 -1 -2 0 -47 4 -100 7 -94 8
-96 32 -96 l25 0 -7 75 -7 75 30 0 c29 0 30 -2 37 -60 6 -53 9 -60 29 -60 20
0 22 4 21 63 -1 60 0 62 24 62 24 0 25 -3 28 -67 3 -66 4 -68 29 -68 26 0 26
0 19 61 -3 34 -6 79 -6 100 0 45 13 43 -155 27z"/>
<path d="M2700 1452 c0 -29 2 -30 60 -37 82 -10 112 -42 74 -79 -17 -18 -27
-18 -96 -7 -44 7 -47 7 -51 -18 -3 -14 -2 -29 2 -33 3 -4 42 -8 85 -10 71 -1
81 1 97 21 21 26 25 91 7 109 -9 9 -8 12 5 12 11 0 17 8 17 24 0 22 -4 24 -72
31 -40 3 -85 8 -100 11 -26 5 -28 3 -28 -24z"/>
<path d="M251 1345 c-24 -30 -46 -55 -49 -55 -2 0 -21 13 -41 28 -58 46 -60
46 -51 5 5 -20 15 -40 22 -45 7 -4 28 -18 46 -30 41 -25 31 -34 -50 -43 -64
-8 -71 -13 -63 -47 l6 -24 112 23 c62 13 123 23 136 23 19 0 22 4 17 23 -3 12
-6 26 -6 31 0 5 -13 6 -29 3 -20 -4 -33 -1 -42 9 -10 12 -7 20 19 47 31 32 40
68 24 94 -5 8 -22 -5 -51 -42z"/>
<path d="M2820 1215 c0 -13 -5 -16 -22 -10 -13 3 -44 9 -69 12 -40 5 -48 2
-63 -18 -23 -34 -21 -79 4 -79 13 0 20 7 20 19 0 29 13 33 65 19 43 -12 45
-14 40 -40 -6 -25 -4 -28 19 -28 19 0 26 5 26 20 0 16 6 20 27 18 21 -2 28 2
34 24 6 23 4 27 -15 30 -13 2 -20 10 -20 21 1 9 -2 17 -6 17 -5 0 -15 3 -24 6
-11 4 -16 1 -16 -11z"/>
<path d="M297 1153 c-14 -13 -6 -36 19 -60 14 -13 24 -31 22 -40 -5 -26 -53
-56 -77 -48 -26 8 -42 43 -30 66 12 23 -28 60 -41 39 -13 -21 -12 -77 1 -103
31 -61 105 -76 158 -31 25 21 31 33 31 65 0 46 -22 94 -49 109 -23 12 -26 12
-34 3z"/>
<path d="M2627 1083 c-7 -17 -8 -28 -2 -30 42 -16 101 -51 109 -65 14 -23 -3
-52 -31 -56 -12 -2 -44 8 -72 22 l-52 25 -10 -26 c-5 -15 -6 -29 -2 -33 19
-16 114 -50 142 -50 36 0 71 40 71 81 0 33 5 34 40 14 35 -20 45 -18 58 9 10
23 7 25 -114 79 l-125 56 -12 -26z"/>
<path d="M350 933 c-30 -20 -58 -41 -62 -47 -21 -32 0 -103 41 -140 20 -18 23
-18 38 -3 15 15 15 18 -10 41 -27 25 -36 69 -18 81 5 3 19 -12 32 -34 28 -51
63 -67 95 -46 17 11 24 25 24 46 0 35 -26 79 -47 79 -8 0 -11 5 -8 10 9 15 -4
50 -18 49 -7 0 -37 -16 -67 -36z m91 -64 c9 -17 8 -24 -4 -36 -13 -13 -17 -11
-36 13 -27 35 -27 44 4 44 15 0 29 -8 36 -21z"/>
<path d="M2505 845 c-14 -13 -25 -34 -25 -47 0 -15 -9 -27 -22 -33 -13 -6 -23
-15 -23 -22 0 -6 35 -37 78 -68 74 -53 80 -55 93 -38 21 28 17 36 -36 71 -51
33 -64 64 -38 90 19 19 37 14 91 -24 l50 -36 18 23 c17 23 17 23 -44 66 -72
50 -107 54 -142 18z"/>
<path d="M496 784 c-3 -8 1 -22 9 -31 18 -18 10 -31 -38 -65 -27 -19 -30 -20
-39 -5 -5 10 -16 17 -24 17 -21 0 -29 -27 -13 -46 11 -14 10 -18 -5 -29 -17
-13 -17 -15 0 -39 16 -25 18 -26 35 -10 14 13 22 14 32 5 17 -14 40 8 32 30
-3 9 13 29 40 52 51 43 57 69 24 111 -23 29 -44 34 -53 10z"/>
<path d="M2364 666 c-48 -48 -56 -82 -26 -109 26 -23 46 -21 92 9 22 15 43 24
46 21 11 -11 -7 -44 -31 -57 -24 -13 -34 -43 -17 -54 13 -8 62 28 83 60 24 37
24 66 1 87 -26 23 -50 21 -88 -8 -36 -28 -54 -32 -54 -12 0 16 37 51 63 60 14
6 16 11 7 27 -15 29 -27 25 -76 -24z"/>
<path d="M560 640 c-28 -28 -25 -54 11 -116 31 -56 31 -74 -1 -74 -17 0 -63
45 -72 71 -3 9 -9 9 -26 0 -22 -12 -22 -13 -5 -43 45 -77 127 -103 170 -54 27
32 25 50 -13 108 -29 46 -31 78 -5 78 17 0 71 -51 71 -68 1 -23 18 -34 38 -23
24 13 21 30 -15 79 -45 60 -115 80 -153 42z"/>
<path d="M2248 564 c-15 -15 -11 -23 45 -95 l62 -78 22 21 22 20 -61 74 c-34
41 -64 74 -67 74 -4 0 -14 -7 -23 -16z"/>
<path d="M2149 495 c-15 -8 -29 -22 -33 -30 -3 -9 -9 -14 -14 -12 -4 3 -17 0
-29 -7 l-22 -11 39 -62 c21 -34 48 -67 60 -73 31 -17 75 -3 118 37 35 33 36
36 18 48 -16 12 -22 11 -48 -15 -33 -34 -50 -37 -68 -15 -8 10 -9 15 -2 15 6
0 27 14 47 31 39 35 45 67 17 92 -22 21 -48 21 -83 2z m47 -47 c8 -13 -43 -61
-57 -53 -14 9 -11 32 7 49 18 19 40 21 50 4z"/>
<path d="M792 370 l-70 -119 24 -16 c22 -14 24 -14 37 7 68 112 127 211 127
213 0 1 -11 10 -24 18 -23 16 -24 15 -94 -103z"/>
<path d="M891 317 c-52 -108 -57 -123 -43 -134 9 -7 21 -13 26 -13 8 0 95 169
123 239 2 3 -8 11 -22 18 -25 11 -26 9 -84 -110z"/>
<path d="M1953 390 c-55 -25 -73 -59 -49 -95 17 -26 20 -26 77 -20 36 4 59 3
59 -3 0 -17 -28 -33 -59 -34 -26 -1 -31 -5 -31 -25 0 -27 23 -30 73 -9 64 26
86 75 50 111 -13 14 -27 16 -70 10 -43 -5 -53 -4 -53 9 0 15 22 25 68 30 19 2
28 10 30 25 3 17 -2 21 -25 21 -15 0 -47 -9 -70 -20z"/>
<path d="M2390 385 c-18 -22 -8 -50 19 -50 28 0 47 25 38 49 -8 20 -40 21 -57
1z"/>
<path d="M1001 298 c-17 -50 -30 -93 -28 -94 1 -1 14 -5 29 -9 25 -6 27 -4 42
48 19 64 36 82 71 73 30 -8 33 -40 10 -107 -16 -44 -13 -55 19 -61 15 -2 23 8
37 47 26 73 24 117 -5 144 -19 18 -33 22 -60 19 -24 -3 -36 0 -36 8 0 11 -21
24 -40 24 -4 0 -22 -41 -39 -92z"/>
<path d="M1753 327 c-18 -10 -19 -15 -9 -29 8 -11 20 -15 33 -12 24 6 36 -10
47 -62 6 -28 4 -32 -18 -38 -18 -4 -23 -11 -19 -26 5 -17 11 -20 34 -15 26 6
29 4 29 -18 0 -23 3 -24 28 -18 22 6 26 13 24 34 -2 18 2 27 12 27 9 0 12 7 9
20 -3 11 -14 20 -24 20 -11 0 -19 6 -19 13 0 27 -22 87 -36 102 -18 18 -60 19
-91 2z"/>
<path d="M1364 263 l-6 -50 -55 10 c-60 10 -58 11 -67 -19 -6 -20 -2 -22 54
-28 l60 -7 0 -34 c0 -19 -3 -35 -7 -35 -5 0 -35 5 -68 10 -45 7 -61 7 -67 -3
-17 -27 -5 -35 67 -46 131 -19 119 -29 137 112 9 67 15 123 15 124 -1 1 -14 4
-29 8 -26 7 -27 5 -34 -42z"/>
<path d="M1571 296 c-21 -25 -4 -58 27 -54 23 2 27 8 27 33 0 23 -5 31 -21 33
-11 2 -26 -4 -33 -12z"/>
</g>
</svg>
